<!-- <?xml version="1.0" encoding="UTF-8"?> <svg xmlns="http://www.w3.org/2000/svg" xmlns:xlink="http://www.w3.org/1999/xlink" width="153" height="50" viewBox="0 0 153 50"><defs><style>.a{fill:none;}.b{clip-path:url(#a);}.c{fill:red;}</style><clipPath id="a"><rect class="a" width="153" height="50"></rect></clipPath></defs><g class="b"><path class="c" d="M764.658,472.33l-21.7-11.734-.052-.024a3.317,3.317,0,0,0-3.289-.022l-21.859,11.818a2.973,2.973,0,0,0-1.571,2.608v20.284a2.991,2.991,0,0,0,1.576,2.618l21.93,11.854a3.257,3.257,0,0,0,3.1,0l21.874-11.825a2.978,2.978,0,0,0,1.568-2.608v-20.36A2.972,2.972,0,0,0,764.658,472.33Zm-2.931,6.312V491.6l-11.982-6.478Zm-38.98-3.948,18.491-10,18.494,10-18.494,10Zm14.636,12.939,2.4,1.3a3.055,3.055,0,0,0,2.919,0l2.4-1.3,14.636,7.913-18.494,10-18.491-10Zm-4.649-2.513-12.08,6.529V478.587Z" transform="translate(-716.183 -460.124)"></path><g transform="translate(60.339 12.419)"><g transform="translate(0 0)"><path class="c" d="M908.49,502.287a2.557,2.557,0,0,1,5.115,0v6.759a6.623,6.623,0,0,1,5.619-2.926c4.206,0,8.211,3.3,8.211,9.314v.067c0,6.02-3.937,9.314-8.211,9.314a6.926,6.926,0,0,1-5.619-2.69v.034a2.558,2.558,0,0,1-5.115-.034ZM922.32,515.5v-.067c0-2.993-2.019-4.976-4.408-4.976s-4.374,1.984-4.374,4.976v.067c0,2.993,1.985,4.977,4.374,4.977S922.32,518.529,922.32,515.5Z" transform="translate(-908.49 -499.732)"></path><g transform="translate(20.494 6.389)"><path class="c" d="M973.809,529.556v-.067a9.767,9.767,0,0,1,19.516-.067v.067a9.767,9.767,0,0,1-19.516.067Zm14.469,0v-.067a4.79,4.79,0,0,0-4.744-4.976,4.618,4.618,0,0,0-4.677,4.909v.067a4.79,4.79,0,0,0,4.745,4.977A4.618,4.618,0,0,0,988.278,529.556Z" transform="translate(-973.809 -520.107)"></path></g><g transform="translate(40.921 6.456)"><path class="c" d="M1039.889,536.9a2.036,2.036,0,0,1-.976-1.748,1.982,1.982,0,0,1,2.019-2.017,1.956,1.956,0,0,1,1.009.269,9.5,9.5,0,0,0,4.879,1.614c1.481,0,2.153-.537,2.153-1.345V533.6c0-1.11-1.75-1.48-3.735-2.085-2.524-.74-5.384-1.917-5.384-5.414v-.067c0-3.665,2.961-5.716,6.6-5.716a12.686,12.686,0,0,1,5.585,1.379,2.082,2.082,0,0,1,1.211,1.917,2.01,2.01,0,0,1-2.052,2.017,1.87,1.87,0,0,1-.943-.235,9.622,9.622,0,0,0-3.9-1.143c-1.245,0-1.885.538-1.885,1.244v.067c0,1.009,1.717,1.48,3.668,2.153,2.524.84,5.451,2.051,5.451,5.347v.067c0,4-2.995,5.817-6.9,5.817A12.574,12.574,0,0,1,1039.889,536.9Z" transform="translate(-1038.913 -520.322)"></path></g><g transform="translate(56.718 1.916)"><path class="c" d="M1091.616,523.566v-8.542h-.168a2.185,2.185,0,1,1,0-4.371h.168V508.4a2.557,2.557,0,0,1,5.114,0v2.253h2.255a2.185,2.185,0,1,1,0,4.371h-2.255v7.7c0,1.177.5,1.749,1.649,1.749.168,0,.5-.034.606-.034a2.132,2.132,0,0,1,2.12,2.118,2.08,2.08,0,0,1-1.312,1.917,7.551,7.551,0,0,1-2.928.5C1093.736,528.979,1091.616,527.735,1091.616,523.566Z" transform="translate(-1089.26 -505.844)"></path></g><g transform="translate(69.776 6.523)"><path class="c" d="M1130.876,533.584v-.067c0-3.934,2.995-5.751,7.268-5.751a12.813,12.813,0,0,1,4.407.74v-.3c0-2.119-1.312-3.3-3.869-3.3a11.746,11.746,0,0,0-3.534.5,2.153,2.153,0,0,1-.74.135,2.082,2.082,0,0,1-2.12-2.085,2.119,2.119,0,0,1,1.38-1.984,15.711,15.711,0,0,1,5.754-.941c2.793,0,4.812.739,6.09,2.017a7.853,7.853,0,0,1,1.952,5.75v8.206a2.455,2.455,0,0,1-2.49,2.455,2.29,2.29,0,0,1-2.457-2.118v-.034a6.935,6.935,0,0,1-5.45,2.286C1133.669,539.1,1130.876,537.149,1130.876,533.584Zm11.743-1.177V531.5a7.932,7.932,0,0,0-3.264-.673c-2.187,0-3.533.875-3.533,2.488v.067c0,1.379,1.144,2.186,2.793,2.186C1141,535.568,1142.619,534.257,1142.619,532.407Z" transform="translate(-1130.876 -520.537)"></path></g></g><g transform="translate(89.193 21.554)"><path class="c" d="M1196.23,570.163a1.694,1.694,0,0,1-1.728,1.706,1.7,1.7,0,1,1,0-3.4A1.692,1.692,0,0,1,1196.23,570.163Zm-3.037,0a1.306,1.306,0,0,0,1.318,1.345,1.291,1.291,0,0,0,1.286-1.337,1.3,1.3,0,1,0-2.6-.008Zm1.04.885h-.389v-1.689a3.616,3.616,0,0,1,.647-.051,1.051,1.051,0,0,1,.587.123.475.475,0,0,1,.163.372.427.427,0,0,1-.35.389v.023a.49.49,0,0,1,.309.41,1.344,1.344,0,0,0,.123.424h-.421a1.459,1.459,0,0,1-.135-.412c-.032-.186-.135-.266-.349-.266h-.186Zm.012-.959h.186c.215,0,.39-.072.39-.246,0-.155-.112-.257-.361-.257a.819.819,0,0,0-.215.023Z" transform="translate(-1192.761 -568.474)"></path></g></g></g></svg>  -->



<svg width="1em" height="1em" viewBox="0 0 111 34" fill="currentColor" xmlns="http://www.w3.org/2000/svg" aria-hidden="true" focusable="false" class=""><path d="M32.6634 8.83273L17.7948 0.266462C17.2016 -0.0888208 16.4503 -0.0888208 15.8572 0.266462L0.9886 8.83273C0.39544 9.18801 0 9.81962 0 10.5302V23.0835C0 23.7941 0.355896 24.4257 0.9886 24.781L15.8572 33.3473C16.1735 33.5052 16.4899 33.6236 16.8458 33.6236C17.2016 33.6236 17.518 33.5447 17.8344 33.3473L32.7029 24.781C33.2961 24.4257 33.6915 23.7941 33.6915 23.0835V10.5302C33.6519 9.81962 33.2565 9.18801 32.6634 8.83273ZM30.2116 19.9649L24.715 16.8069L30.2116 13.6488V19.9649ZM16.8458 3.66139L28.7485 10.5302L16.8458 17.399L4.90345 10.5302L16.8458 3.66139ZM3.44032 13.6093L8.93695 16.7674L3.44032 19.9255V13.6093ZM16.8458 29.9129L4.90345 23.0441L12.3377 18.7412L15.8176 20.7545C16.134 20.9124 16.4503 21.0308 16.8062 21.0308C17.1621 21.0308 17.4785 20.9518 17.7948 20.7545L21.2747 18.7412L28.709 23.0441L16.8458 29.9129Z" fill="#E30613"></path><path d="M65.6826 11.7934C61.57 11.7934 58.7229 14.5962 58.7229 18.6228C58.7229 22.6493 61.57 25.4521 65.6431 25.4521C69.7556 25.4521 72.6028 22.6493 72.6028 18.6228C72.6028 14.5962 69.7556 11.7934 65.6826 11.7934ZM65.6826 22.3335C63.5472 22.3335 62.2027 20.8729 62.2027 18.6228C62.2027 16.3726 63.5868 14.912 65.6826 14.912C67.7389 14.912 69.1625 16.4121 69.1625 18.6228C69.1229 20.8334 67.7389 22.3335 65.6826 22.3335Z" fill="#E30613"></path><path d="M80.2743 17.2016C78.653 16.9648 77.2294 16.7674 77.2294 15.6621C77.2294 15.1094 77.6249 14.3988 79.4439 14.3988C80.907 14.3988 81.9747 15.0304 82.2911 16.1358L85.415 15.4252C84.7428 13.0567 82.6865 11.7539 79.6416 11.7539C76.2408 11.7539 73.9473 13.333 73.9473 15.7015C73.9473 19.0175 76.8735 19.4123 79.2462 19.7676C80.907 20.0044 82.3701 20.2018 82.3701 21.3861C82.3701 22.0177 81.8956 22.7677 79.6416 22.7677C77.9412 22.7677 76.7944 22.1361 76.4385 20.9913L73.3146 21.6229C74.0264 24.0704 76.1617 25.3731 79.5625 25.3731C83.3192 25.3731 85.6918 23.7941 85.6918 21.2676C85.7314 17.9911 82.7261 17.5569 80.2743 17.2016Z" fill="#E30613"></path><path d="M92.2562 22.4914C91.228 22.4914 90.6348 21.7808 90.6348 20.5571V15.0305H95.9338V12.1487H90.6348V8.12217H87.1945V20.5965C87.1945 23.7151 88.9344 25.4916 91.9398 25.4916C94.5497 25.4916 96.2501 24.3073 96.8433 22.0966L94.0752 21.2282C93.7588 22.0177 93.1261 22.4914 92.2562 22.4914Z" fill="#E30613"></path><path d="M107.639 13.8067L107.52 13.6488C106.65 12.425 105.227 11.7934 103.328 11.7934C99.8486 11.7934 97.3573 14.6752 97.3573 18.6227C97.3573 22.6098 99.8486 25.4916 103.249 25.4916C105.147 25.4916 106.571 24.8205 107.481 23.5178L107.599 23.3599V23.3993L108.271 25.1363H111V12.1882H108.271L107.639 13.8067ZM104.159 22.3335C102.142 22.3335 100.798 20.8729 100.798 18.5833C100.798 16.3332 102.103 14.8725 104.159 14.8725C106.215 14.8725 107.56 16.3332 107.56 18.5833C107.56 20.8334 106.176 22.3335 104.159 22.3335Z" fill="#E30613"></path><path d="M51.4863 11.7937C49.6673 11.7937 48.2832 12.4253 47.3737 13.649L47.176 13.9254V8.16189H43.7357V25.1365H46.4642L47.176 23.3206L47.2946 23.4785C48.2437 24.8207 49.6673 25.4918 51.5258 25.4918C55.0057 25.4918 57.4179 22.689 57.4179 18.6625C57.3783 14.5965 54.9662 11.7937 51.4863 11.7937ZM50.6163 22.3337C49.0346 22.3337 47.176 21.7021 47.176 18.5835C47.176 16.2939 48.5205 14.8333 50.6559 14.8333C52.6331 14.8333 53.938 16.3334 53.938 18.5835C53.8985 20.8337 52.5935 22.3337 50.6163 22.3337Z" fill="#E30613"></path></svg>